<svg xmlns="http://www.w3.org/2000/svg" width="64" height="64" viewBox="0 0 64 64">
  <path d="M32 2C20 2 10 12 10 24c0 14 22 38 22 38s22-24 22-38C54 12 44 2 32 2z" fill="#E53935" stroke="#111" stroke-width="2"/>
  <circle cx="22" cy="24" r="4" fill="#FFFFFF"/>
  <circle cx="42" cy="24" r="4" fill="#FFFFFF"/>
  <circle cx="18" cy="32" r="4" fill="#FFFFFF"/>
  <circle cx="46" cy="32" r="4" fill="#FFFFFF"/>
  <path d="M32 29c-2.6-3-7-2.8-9 .1-2 3 .3 6.4 4 8.3l5 2.9 5-2.9c3.7-1.9 6-5.3 4-8.3-2-3-6.4-3.1-9-.1z" fill="#FFFFFF"/>
</svg>
